<?xml version="1.0" encoding="UTF-8"?>
<svg xmlns="http://www.w3.org/2000/svg" version="1.1" viewBox="0 0 100 100" xml:space="preserve">
	<path stroke="#008000" stroke-width="5" fill="transparent" d="
		M 20.0 7.0 L 24.11449676604731 14.336881039375367 L 32.363734711837 15.982779073125684 L 26.657395614066075 22.16311896062463 L 27.64120827980215 30.517220926874316 L 20.0 27.0 L 12.35879172019785 30.517220926874316 L 13.342604385933925 22.163118960624633 L 7.636265288163003 15.982779073125686 L 15.885503233952686 14.336881039375369 Z
		M 80.0 27.0 L 84.11449676604731 34.33688103937537 L 92.363734711837 35.982779073125684 L 86.65739561406608 42.16311896062463 L 87.64120827980216 50.517220926874316 L 80.0 47.0 L 72.35879172019786 50.517220926874316 L 73.34260438593392 42.16311896062463 L 67.636265288163 35.982779073125684 L 75.88550323395269 34.33688103937537 Z
		M 40.0 67.0 L 44.11449676604731 74.33688103937537 L 52.363734711837 75.98277907312568 L 46.657395614066075 82.16311896062463 L 47.64120827980215 90.51722092687432 L 40.0 87.0 L 32.35879172019785 90.51722092687432 L 33.342604385933925 82.16311896062463 L 27.636265288163003 75.98277907312568 L 35.88550323395269 74.33688103937537 Z
	"/>
	<g stroke="#008000" stroke-width="5" stroke-dasharray="8,4" fill="none">
		<line x1='29.486832980505138' y1='23.162277660168378' x2='66.71843382729281' y2='35.572811275764266'/>
		<line x1='70.10050506338834' y1='49.89949493661167' x2='47.071067811865476' y2='72.92893218813452'/>
		<line x1='36.20526680779795' y1='68.61580042339384' x2='23.794733192202056' y2='31.384199576606164'/>
	</g>
</svg>