<?xml version="1.0" encoding="UTF-8"?>
<svg xmlns="http://www.w3.org/2000/svg" version="1.1" viewBox="0 0 512 512" xml:space="preserve">
    <path stroke="#008000" stroke-width="25" fill="transparent" d="
        M50 500
        C240 450 270 450 500 500
    "/>
    <path fill="#008000" d="
        M185 19
        v.25
        c-18 39 -45 72 -78 103
        l38 -4
        -51 65
        25 -8
        -34 55
        16 10
        -65 92
        h36
        L20 416
        l64 -8
        12 32
        66 -25
        -11 50
        53 0
        -7 -48
        38 16
        10 -25
        44 21
        56 -21
        -37 -64
        -12 -2
        15 37
        -71 -28
        v36
        l-84 -51
        -40 39
        4 -50
        18 2
        14 -14
        68 41
        v-30
        l56 22
        -11 -29
        62 11
        -35 -39
        -30 18
        -19 -22
        -18 5
        -12 -67
        53.2 61
        44 -26
        -50 -49
        L265 261
        l-53 -70
        -36 76
        -7 -61
        17 -2
        23 -49
        34 45
        -2 -26
        36 13
        -26 -35
        -56 -29
        -19 42
        -15 -45
        17 -6
        8 -18
        58 30
        16 -6
        C217 88 196 54 185 19
        Z
    "/>
    <path fill="#008000" d="
        M400 240
        417 174
        485 177
        428 140
        452 77
        400 120
        347 77
        371 140
        314 177
        382 174
        Z
    "/>
</svg>